<svg aria-hidden="true" style="position: absolute; width: 0; height: 0; overflow: hidden;" version="1.1" xmlns="http://www.w3.org/2000/svg" xmlns:xlink="http://www.w3.org/1999/xlink">
<defs>
<symbol id="icon-home" viewBox="0 0 26 28">
<title>home</title>
<path d="M22 15.5v7.5c0 0.547-0.453 1-1 1h-6v-6h-4v6h-6c-0.547 0-1-0.453-1-1v-7.5c0-0.031 0.016-0.063 0.016-0.094l8.984-7.406 8.984 7.406c0.016 0.031 0.016 0.063 0.016 0.094zM25.484 14.422l-0.969 1.156c-0.078 0.094-0.203 0.156-0.328 0.172h-0.047c-0.125 0-0.234-0.031-0.328-0.109l-10.813-9.016-10.813 9.016c-0.109 0.078-0.234 0.125-0.375 0.109-0.125-0.016-0.25-0.078-0.328-0.172l-0.969-1.156c-0.172-0.203-0.141-0.531 0.063-0.703l11.234-9.359c0.656-0.547 1.719-0.547 2.375 0l3.813 3.187v-3.047c0-0.281 0.219-0.5 0.5-0.5h3c0.281 0 0.5 0.219 0.5 0.5v6.375l3.422 2.844c0.203 0.172 0.234 0.5 0.063 0.703z"></path>
</symbol>
<symbol id="icon-automobile" viewBox="0 0 32 28">
<title>automobile</title>
<path d="M7.5 17c0-1.375-1.125-2.5-2.5-2.5s-2.5 1.125-2.5 2.5 1.125 2.5 2.5 2.5 2.5-1.125 2.5-2.5zM8.062 12h15.875l-1.391-5.578c-0.047-0.172-0.359-0.422-0.547-0.422h-12c-0.187 0-0.5 0.25-0.547 0.422zM29.5 17c0-1.375-1.125-2.5-2.5-2.5s-2.5 1.125-2.5 2.5 1.125 2.5 2.5 2.5 2.5-1.125 2.5-2.5zM32 15.5v6c0 0.281-0.219 0.5-0.5 0.5h-1.5v2c0 1.656-1.344 3-3 3s-3-1.344-3-3v-2h-16v2c0 1.656-1.344 3-3 3s-3-1.344-3-3v-2h-1.5c-0.281 0-0.5-0.219-0.5-0.5v-6c0-1.937 1.563-3.5 3.5-3.5h0.438l1.641-6.547c0.484-1.969 2.391-3.453 4.422-3.453h12c2.031 0 3.938 1.484 4.422 3.453l1.641 6.547h0.438c1.937 0 3.5 1.563 3.5 3.5z"></path>
</symbol>
<symbol id="icon-shower" viewBox="0 0 30 28">
<title>shower</title>
<path d="M22.391 3.891c0.203 0.203 0.203 0.516 0 0.719l-9.781 9.781c-0.203 0.203-0.516 0.203-0.719 0l-1.281-1.281c-0.203-0.203-0.203-0.516 0-0.719l0.688-0.688c-1.516-1.906-1.703-4.516-0.547-6.594-0.719-0.688-1.687-1.109-2.75-1.109-2.203 0-4 1.797-4 4v20h-4v-20c0-4.406 3.594-8 8-8 2.25 0 4.281 0.938 5.734 2.438 1.969-0.797 4.25-0.5 5.969 0.859l0.688-0.688c0.203-0.203 0.516-0.203 0.719 0zM21 8c0.547 0 1 0.453 1 1s-0.453 1-1 1-1-0.453-1-1 0.453-1 1-1zM25 10c-0.547 0-1-0.453-1-1s0.453-1 1-1 1 0.453 1 1-0.453 1-1 1zM29 8c0.547 0 1 0.453 1 1s-0.453 1-1 1-1-0.453-1-1 0.453-1 1-1zM19 10c0.547 0 1 0.453 1 1s-0.453 1-1 1-1-0.453-1-1 0.453-1 1-1zM22 11c0-0.547 0.453-1 1-1s1 0.453 1 1-0.453 1-1 1-1-0.453-1-1zM27 10c0.547 0 1 0.453 1 1s-0.453 1-1 1-1-0.453-1-1 0.453-1 1-1zM17 12c0.547 0 1 0.453 1 1s-0.453 1-1 1-1-0.453-1-1 0.453-1 1-1zM21 14c-0.547 0-1-0.453-1-1s0.453-1 1-1 1 0.453 1 1-0.453 1-1 1zM25 12c0.547 0 1 0.453 1 1s-0.453 1-1 1-1-0.453-1-1 0.453-1 1-1zM19 16c-0.547 0-1-0.453-1-1s0.453-1 1-1 1 0.453 1 1-0.453 1-1 1zM23 14c0.547 0 1 0.453 1 1s-0.453 1-1 1-1-0.453-1-1 0.453-1 1-1zM17 16c0.547 0 1 0.453 1 1s-0.453 1-1 1-1-0.453-1-1 0.453-1 1-1zM21 16c0.547 0 1 0.453 1 1s-0.453 1-1 1-1-0.453-1-1 0.453-1 1-1zM19 18c0.547 0 1 0.453 1 1s-0.453 1-1 1-1-0.453-1-1 0.453-1 1-1zM17 20c0.547 0 1 0.453 1 1s-0.453 1-1 1-1-0.453-1-1 0.453-1 1-1z"></path>
</symbol>
<symbol id="icon-edit-pencil" viewBox="0 0 20 20">
<title>edit-pencil</title>
<path d="M12.3 3.7l4 4-12.3 12.3h-4v-4l12.3-12.3zM13.7 2.3l2.3-2.3 4 4-2.3 2.3-4-4z"></path>
</symbol>
<symbol id="icon-heart" viewBox="0 0 20 20">
<title>heart</title>
<path d="M10 3.22l-0.61-0.6c-0.983-0.931-2.314-1.504-3.779-1.504-3.038 0-5.5 2.462-5.5 5.5 0 1.462 0.571 2.791 1.501 3.776l-0.002-0.003 8.39 8.39 8.39-8.4c0.928-0.983 1.499-2.312 1.499-3.774 0-3.038-2.462-5.5-5.5-5.5-1.465 0-2.796 0.573-3.782 1.506l0.003-0.002-0.61 0.61z"></path>
</symbol>
<symbol id="icon-location-hotel" viewBox="0 0 20 20">
<title>location-hotel</title>
<path d="M2 12h18v6h-2v-2h-16v2h-2v-16h2v10zM10 6h8c1.105 0 2 0.895 2 2v0 3h-10v-5zM6 11c-1.657 0-3-1.343-3-3s1.343-3 3-3v0c1.657 0 3 1.343 3 3s-1.343 3-3 3v0z"></path>
</symbol>
<symbol id="icon-phone" viewBox="0 0 32 32">
<title>phone</title>
<path d="M22 20c-2 2-2 4-4 4s-4-2-6-4-4-4-4-6 2-2 4-4-4-8-6-8-6 6-6 6c0 4 4.109 12.109 8 16s12 8 16 8c0 0 6-4 6-6s-6-8-8-6z"></path>
</symbol>
<symbol id="icon-envelop" viewBox="0 0 32 32">
<title>envelop</title>
<path d="M29 4h-26c-1.65 0-3 1.35-3 3v20c0 1.65 1.35 3 3 3h26c1.65 0 3-1.35 3-3v-20c0-1.65-1.35-3-3-3zM12.461 17.199l-8.461 6.59v-15.676l8.461 9.086zM5.512 8h20.976l-10.488 7.875-10.488-7.875zM12.79 17.553l3.21 3.447 3.21-3.447 6.58 8.447h-19.579l6.58-8.447zM19.539 17.199l8.461-9.086v15.676l-8.461-6.59z"></path>
</symbol>
<symbol id="icon-location" viewBox="0 0 32 32">
<title>location</title>
<path d="M16 0c-5.523 0-10 4.477-10 10 0 10 10 22 10 22s10-12 10-22c0-5.523-4.477-10-10-10zM16 16c-3.314 0-6-2.686-6-6s2.686-6 6-6 6 2.686 6 6-2.686 6-6 6z"></path>
</symbol>
<symbol id="icon-user" viewBox="0 0 32 32">
<title>user</title>
<path d="M18 22.082v-1.649c2.203-1.241 4-4.337 4-7.432 0-4.971 0-9-6-9s-6 4.029-6 9c0 3.096 1.797 6.191 4 7.432v1.649c-6.784 0.555-12 3.888-12 7.918h28c0-4.030-5.216-7.364-12-7.918z"></path>
</symbol>
<symbol id="icon-google-plus" viewBox="0 0 32 32">
<title>google-plus</title>
<path d="M10.181 14.294v3.494h5.775c-0.231 1.5-1.744 4.394-5.775 4.394-3.475 0-6.313-2.881-6.313-6.431s2.838-6.431 6.313-6.431c1.981 0 3.3 0.844 4.056 1.569l2.762-2.662c-1.775-1.656-4.075-2.662-6.819-2.662-5.631 0.006-10.181 4.556-10.181 10.188s4.55 10.181 10.181 10.181c5.875 0 9.775-4.131 9.775-9.95 0-0.669-0.075-1.181-0.163-1.688h-9.613z"></path>
<path d="M32 14h-3v-3h-3v3h-3v3h3v3h3v-3h3z"></path>
</symbol>
<symbol id="icon-facebook" viewBox="0 0 32 32">
<title>facebook</title>
<path d="M19 6h5v-6h-5c-3.86 0-7 3.14-7 7v3h-4v6h4v16h6v-16h5l1-6h-6v-3c0-0.542 0.458-1 1-1z"></path>
</symbol>
<symbol id="icon-twitter" viewBox="0 0 32 32">
<title>twitter</title>
<path d="M32 7.075c-1.175 0.525-2.444 0.875-3.769 1.031 1.356-0.813 2.394-2.1 2.887-3.631-1.269 0.75-2.675 1.3-4.169 1.594-1.2-1.275-2.906-2.069-4.794-2.069-3.625 0-6.563 2.938-6.563 6.563 0 0.512 0.056 1.012 0.169 1.494-5.456-0.275-10.294-2.888-13.531-6.862-0.563 0.969-0.887 2.1-0.887 3.3 0 2.275 1.156 4.287 2.919 5.463-1.075-0.031-2.087-0.331-2.975-0.819 0 0.025 0 0.056 0 0.081 0 3.181 2.263 5.838 5.269 6.437-0.55 0.15-1.131 0.231-1.731 0.231-0.425 0-0.831-0.044-1.237-0.119 0.838 2.606 3.263 4.506 6.131 4.563-2.25 1.762-5.075 2.813-8.156 2.813-0.531 0-1.050-0.031-1.569-0.094 2.913 1.869 6.362 2.95 10.069 2.95 12.075 0 18.681-10.006 18.681-18.681 0-0.287-0.006-0.569-0.019-0.85 1.281-0.919 2.394-2.075 3.275-3.394z"></path>
</symbol>
<symbol id="icon-linkedin2" viewBox="0 0 32 32">
<title>linkedin2</title>
<path d="M12 12h5.535v2.837h0.079c0.77-1.381 2.655-2.837 5.464-2.837 5.842 0 6.922 3.637 6.922 8.367v9.633h-5.769v-8.54c0-2.037-0.042-4.657-3.001-4.657-3.005 0-3.463 2.218-3.463 4.509v8.688h-5.767v-18z"></path>
<path d="M2 12h6v18h-6v-18z"></path>
<path d="M8 7c0 1.657-1.343 3-3 3s-3-1.343-3-3c0-1.657 1.343-3 3-3s3 1.343 3 3z"></path>
</symbol>
</defs>
</svg>
